<svg xmlns="http://www.w3.org/2000/svg" width="760" height="360" viewBox="0 0 760 360"><style>.title{font:700 22px Arial,sans-serif;fill:#0f172a}.axis{font:12px Arial,sans-serif;fill:#475569}.label{font:12px Arial,sans-serif;fill:#1e293b}.value{font:12px Arial,sans-serif;fill:#0f172a}</style><rect width="760" height="360" fill="#ffffff"/><text x="24" y="32" class="title">Overall Metrics</text><line x1="90" y1="288" x2="728" y2="288" stroke="#94a3b8" stroke-width="2" /><line x1="90" y1="52" x2="90" y2="288" stroke="#94a3b8" stroke-width="2" /><line x1="90" y1="52.0" x2="728" y2="52.0" stroke="#dbe4f0" stroke-width="1" /><text x="80" y="56.0" text-anchor="end" class="axis">1</text><line x1="90" y1="111.0" x2="728" y2="111.0" stroke="#dbe4f0" stroke-width="1" /><text x="80" y="115.0" text-anchor="end" class="axis">0.75</text><line x1="90" y1="170.0" x2="728" y2="170.0" stroke="#dbe4f0" stroke-width="1" /><text x="80" y="174.0" text-anchor="end" class="axis">0.5</text><line x1="90" y1="229.0" x2="728" y2="229.0" stroke="#dbe4f0" stroke-width="1" /><text x="80" y="233.0" text-anchor="end" class="axis">0.25</text><line x1="90" y1="288.0" x2="728" y2="288.0" stroke="#dbe4f0" stroke-width="1" /><text x="80" y="292.0" text-anchor="end" class="axis">0</text><rect x="90.0" y="222.4" width="146.0" height="65.6" rx="8" fill="#1d4ed8" /><text x="163.0" y="306.0" text-anchor="middle" class="label">accuracy</text><text x="163.0" y="214.4" text-anchor="middle" class="value">0.2778</text><rect x="254.0" y="222.4" width="146.0" height="65.6" rx="8" fill="#dc2626" /><text x="327.0" y="306.0" text-anchor="middle" class="label">precision</text><text x="327.0" y="214.4" text-anchor="middle" class="value">0.2778</text><rect x="418.0" y="52.0" width="146.0" height="236.0" rx="8" fill="#059669" /><text x="491.0" y="306.0" text-anchor="middle" class="label">recall</text><text x="491.0" y="66.0" text-anchor="middle" class="value">1</text><rect x="582.0" y="185.4" width="146.0" height="102.6" rx="8" fill="#d97706" /><text x="655.0" y="306.0" text-anchor="middle" class="label">f1</text><text x="655.0" y="177.4" text-anchor="middle" class="value">0.4348</text></svg>